<svg width="46" height="47" viewBox="0 0 46 47" fill="none" xmlns="http://www.w3.org/2000/svg">
<path d="M31.7917 23.4924V32.6591M31.7917 16.6174V16.6403M43.25 12.0341V34.9508C43.25 37.3819 42.2842 39.7135 40.5651 41.4326C38.8461 43.1517 36.5145 44.1174 34.0833 44.1174H11.1667C8.73552 44.1174 6.40394 43.1517 4.68485 41.4326C2.96577 39.7135 2 37.3819 2 34.9508V12.0341C2 9.60295 2.96577 7.27137 4.68485 5.55229C6.40394 3.8332 8.73552 2.86743 11.1667 2.86743H34.0833C36.5145 2.86743 38.8461 3.8332 40.5651 5.55229C42.2842 7.27137 43.25 9.60295 43.25 12.0341Z" stroke="#959595" stroke-width="4" stroke-linecap="round" stroke-linejoin="round"/>
<path d="M10.7726 31.5086L13.2399 24.8206M13.2399 24.8206L17.3521 13.6741L21.4643 24.8206M13.2399 24.8206H21.4643M23.9316 31.5086L21.4643 24.8206" stroke="#959595" stroke-width="4" stroke-linecap="round" stroke-linejoin="round"/>
</svg>
