<svg width="49" height="49" viewBox="0 0 49 49" fill="none" xmlns="http://www.w3.org/2000/svg">
<path fill-rule="evenodd" clip-rule="evenodd" d="M25.9901 31.2018C27.3666 32.3058 29.0713 32.9203 30.8356 32.9483C32.5998 32.9762 34.3232 32.4161 35.734 31.3563C37.1447 30.2965 38.1625 28.7973 38.6269 27.095C39.0914 25.3927 38.9759 23.5843 38.2989 21.9549C37.7327 20.5865 36.7954 19.4035 35.5927 18.5394C36.6187 17.804 37.4545 16.8346 38.0309 15.7116C38.6072 14.5886 38.9075 13.3443 38.9069 12.0821C38.9069 9.97424 38.0695 7.95275 36.5791 6.4623C35.0886 4.97185 33.0671 4.13452 30.9593 4.13452H18.0446C16.362 4.13404 14.7227 4.66758 13.3627 5.65831C12.0027 6.64904 10.9922 8.04583 10.4768 9.64754C9.9614 11.2492 9.96762 12.9732 10.4946 14.5711C11.0216 16.1691 12.0421 17.5585 13.4092 18.5394C12.3837 19.2752 11.5481 20.2447 10.9718 21.3676C10.3954 22.4906 10.0948 23.7346 10.0948 24.9968C10.0948 26.259 10.3954 27.503 10.9718 28.6259C11.5481 29.7489 12.3837 30.7184 13.4092 31.4542C12.3028 32.2481 11.4189 33.313 10.8424 34.5467C10.2659 35.7805 10.0161 37.1417 10.1169 38.4997C10.2177 39.8578 10.6658 41.1672 11.4182 42.3022C12.1706 43.4373 13.202 44.3601 14.4135 44.9819C15.625 45.6037 16.976 45.9038 18.3369 45.8534C19.6978 45.803 21.0228 45.4037 22.185 44.6939C23.3472 43.9841 24.3075 42.9876 24.9738 41.7999C25.6401 40.6123 25.9901 39.2733 25.9901 37.9115V31.2018ZM18.0426 7.11485C16.7252 7.11485 15.4618 7.63818 14.5303 8.56971C13.5987 9.50124 13.0754 10.7647 13.0754 12.0821C13.0754 13.3994 13.5987 14.6629 14.5303 15.5944C15.4618 16.5259 16.7252 17.0493 18.0426 17.0493H23.0098V7.11485H18.0426ZM23.0098 32.9443H18.0426C17.0602 32.9443 16.0998 33.2356 15.283 33.7815C14.4661 34.3273 13.8295 35.103 13.4535 36.0107C13.0775 36.9183 12.9792 37.917 13.1708 38.8806C13.3625 39.8441 13.8356 40.7292 14.5303 41.4239C15.2249 42.1186 16.11 42.5916 17.0735 42.7833C18.0371 42.975 19.0358 42.8766 19.9435 42.5006C20.8511 42.1247 21.6269 41.488 22.1727 40.6712C22.7185 39.8543 23.0098 38.894 23.0098 37.9115V32.9443ZM18.0426 20.0296C16.7252 20.0296 15.4618 20.5529 14.5303 21.4844C13.5987 22.416 13.0754 23.6794 13.0754 24.9968C13.0754 26.3142 13.5987 27.5776 14.5303 28.5091C15.4618 29.4407 16.7252 29.964 18.0426 29.964H23.0098V20.0296H18.0426ZM25.9901 24.9968C25.9901 26.3144 26.5136 27.5781 27.4453 28.5098C28.377 29.4416 29.6407 29.965 30.9583 29.965C32.276 29.965 33.5397 29.4416 34.4714 28.5098C35.4031 27.5781 35.9265 26.3144 35.9265 24.9968C35.9265 23.6791 35.4031 22.4155 34.4714 21.4837C33.5397 20.552 32.276 20.0286 30.9583 20.0286C29.6407 20.0286 28.377 20.552 27.4453 21.4837C26.5136 22.4155 25.9901 23.6791 25.9901 24.9968ZM30.9573 17.0493C32.2747 17.0493 33.5382 16.5259 34.4697 15.5944C35.4012 14.6629 35.9245 13.3994 35.9245 12.0821C35.9245 10.7647 35.4012 9.50124 34.4697 8.56971C33.5382 7.63818 32.2747 7.11485 30.9573 7.11485H25.9901V17.0493H30.9573Z" fill="#959595"/>
</svg>
