<svg width="40" height="41" viewBox="0 0 40 41" fill="none" xmlns="http://www.w3.org/2000/svg">
<circle cx="20" cy="20.2499" r="19.65" fill="white" fill-opacity="0.04" stroke="#575757" stroke-width="0.7"/>
<path d="M15.8 10.2499H24.2C27.4 10.2499 30 12.8499 30 16.0499V24.4499C30 25.9882 29.3889 27.4634 28.3012 28.5511C27.2135 29.6388 25.7383 30.2499 24.2 30.2499H15.8C12.6 30.2499 10 27.6499 10 24.4499V16.0499C10 14.5117 10.6111 13.0364 11.6988 11.9487C12.7865 10.861 14.2617 10.2499 15.8 10.2499ZM15.6 12.2499C14.6452 12.2499 13.7295 12.6292 13.0544 13.3043C12.3793 13.9795 12 14.8951 12 15.8499V24.6499C12 26.6399 13.61 28.2499 15.6 28.2499H24.4C25.3548 28.2499 26.2705 27.8706 26.9456 27.1955C27.6207 26.5204 28 25.6047 28 24.6499V15.8499C28 13.8599 26.39 12.2499 24.4 12.2499H15.6ZM25.25 13.7499C25.5815 13.7499 25.8995 13.8816 26.1339 14.116C26.3683 14.3504 26.5 14.6684 26.5 14.9999C26.5 15.3314 26.3683 15.6494 26.1339 15.8838C25.8995 16.1182 25.5815 16.2499 25.25 16.2499C24.9185 16.2499 24.6005 16.1182 24.3661 15.8838C24.1317 15.6494 24 15.3314 24 14.9999C24 14.6684 24.1317 14.3504 24.3661 14.116C24.6005 13.8816 24.9185 13.7499 25.25 13.7499ZM20 15.2499C21.3261 15.2499 22.5979 15.7767 23.5355 16.7144C24.4732 17.6521 25 18.9238 25 20.2499C25 21.576 24.4732 22.8478 23.5355 23.7854C22.5979 24.7231 21.3261 25.2499 20 25.2499C18.6739 25.2499 17.4021 24.7231 16.4645 23.7854C15.5268 22.8478 15 21.576 15 20.2499C15 18.9238 15.5268 17.6521 16.4645 16.7144C17.4021 15.7767 18.6739 15.2499 20 15.2499ZM20 17.2499C19.2044 17.2499 18.4413 17.566 17.8787 18.1286C17.3161 18.6912 17 19.4543 17 20.2499C17 21.0456 17.3161 21.8086 17.8787 22.3712C18.4413 22.9338 19.2044 23.2499 20 23.2499C20.7956 23.2499 21.5587 22.9338 22.1213 22.3712C22.6839 21.8086 23 21.0456 23 20.2499C23 19.4543 22.6839 18.6912 22.1213 18.1286C21.5587 17.566 20.7956 17.2499 20 17.2499Z" fill="#BABABA"/>
</svg>
