<svg width="40" height="41" viewBox="0 0 40 41" fill="none" xmlns="http://www.w3.org/2000/svg">
<circle cx="20" cy="20.2499" r="19.65" fill="white" fill-opacity="0.04" stroke="#575757" stroke-width="0.7"/>
<g clip-path="url(#clip0_9_43)">
<path d="M26 11.2499C26.7956 11.2499 27.5587 11.566 28.1213 12.1286C28.6839 12.6912 29 13.4543 29 14.2499V26.2499C29 27.0456 28.6839 27.8086 28.1213 28.3712C27.5587 28.9338 26.7956 29.2499 26 29.2499H14C13.2044 29.2499 12.4413 28.9338 11.8787 28.3712C11.3161 27.8086 11 27.0456 11 26.2499V14.2499C11 13.4543 11.3161 12.6912 11.8787 12.1286C12.4413 11.566 13.2044 11.2499 14 11.2499H26ZM26 13.2499H14C13.7348 13.2499 13.4804 13.3553 13.2929 13.5428C13.1054 13.7303 13 13.9847 13 14.2499V26.2499C13 26.5151 13.1054 26.7695 13.2929 26.957C13.4804 27.1446 13.7348 27.2499 14 27.2499H26C26.2652 27.2499 26.5196 27.1446 26.7071 26.957C26.8946 26.7695 27 26.5151 27 26.2499V14.2499C27 13.9847 26.8946 13.7303 26.7071 13.5428C26.5196 13.3553 26.2652 13.2499 26 13.2499ZM16 18.2499C16.2449 18.2499 16.4813 18.3399 16.6644 18.5026C16.8474 18.6654 16.9643 18.8897 16.993 19.1329L17 19.2499V24.2499C16.9997 24.5048 16.9021 24.7499 16.7272 24.9353C16.5522 25.1206 16.313 25.2321 16.0586 25.2471C15.8042 25.262 15.5536 25.1792 15.3582 25.0156C15.1627 24.8521 15.0371 24.62 15.007 24.3669L15 24.2499V19.2499C15 18.9847 15.1054 18.7303 15.2929 18.5428C15.4804 18.3553 15.7348 18.2499 16 18.2499ZM19 17.2499C19.2342 17.2499 19.461 17.332 19.6408 17.4821C19.8206 17.6321 19.9421 17.8405 19.984 18.0709C20.1852 17.9542 20.3933 17.8497 20.607 17.7579C21.274 17.4729 22.273 17.3159 23.175 17.5989C23.648 17.7489 24.123 18.0289 24.475 18.5059C24.79 18.9309 24.96 19.4479 24.994 20.0289L25 20.2499V24.2499C24.9997 24.5048 24.9021 24.7499 24.7272 24.9353C24.5522 25.1206 24.313 25.2321 24.0586 25.2471C23.8042 25.262 23.5536 25.1792 23.3582 25.0156C23.1627 24.8521 23.0371 24.62 23.007 24.3669L23 24.2499V20.2499C23 19.9199 22.92 19.7659 22.868 19.6949C22.7934 19.6021 22.6905 19.5361 22.575 19.5069C22.227 19.3969 21.726 19.4549 21.393 19.5969C20.893 19.8109 20.435 20.1469 20.123 20.4579L20 20.5899V24.2499C19.9997 24.5048 19.9021 24.7499 19.7272 24.9353C19.5522 25.1206 19.313 25.2321 19.0586 25.2471C18.8042 25.262 18.5536 25.1792 18.3582 25.0156C18.1627 24.8521 18.0371 24.62 18.007 24.3669L18 24.2499V18.2499C18 17.9847 18.1054 17.7303 18.2929 17.5428C18.4804 17.3553 18.7348 17.2499 19 17.2499ZM16 15.2499C16.2652 15.2499 16.5196 15.3553 16.7071 15.5428C16.8946 15.7303 17 15.9847 17 16.2499C17 16.5151 16.8946 16.7695 16.7071 16.957C16.5196 17.1446 16.2652 17.2499 16 17.2499C15.7348 17.2499 15.4804 17.1446 15.2929 16.957C15.1054 16.7695 15 16.5151 15 16.2499C15 15.9847 15.1054 15.7303 15.2929 15.5428C15.4804 15.3553 15.7348 15.2499 16 15.2499Z" fill="#BABABA"/>
</g>
<defs>
<clipPath id="clip0_9_43">
<rect width="24" height="24" fill="white" transform="translate(8 8.24991)"/>
</clipPath>
</defs>
</svg>
