<svg width="46" height="47" viewBox="0 0 46 47" fill="none" xmlns="http://www.w3.org/2000/svg">
<path d="M43.625 12.0417V34.9583C43.625 37.3895 42.6592 39.7211 40.9401 41.4401C39.2211 43.1592 36.8895 44.125 34.4583 44.125H11.5417C9.11051 44.125 6.77894 43.1592 5.05985 41.4401C3.34077 39.7211 2.375 37.3895 2.375 34.9583V12.0417C2.375 9.61051 3.34077 7.27894 5.05985 5.55985C6.77894 3.84077 9.11051 2.875 11.5417 2.875H34.4583C36.8895 2.875 39.2211 3.84077 40.9401 5.55985C42.6592 7.27894 43.625 9.61051 43.625 12.0417Z" stroke="#959595" stroke-width="4" stroke-linecap="round" stroke-linejoin="round"/>
<path d="M11.5417 32.6666V23.5M11.5417 23.5V14.3333H16.125C17.3406 14.3333 18.5064 14.8162 19.3659 15.6757C20.2254 16.5353 20.7083 17.7011 20.7083 18.9166C20.7083 20.1322 20.2254 21.298 19.3659 22.1576C18.5064 23.0171 17.3406 23.5 16.125 23.5H11.5417ZM34.4583 21.2083C33.7571 19.8035 32.3202 18.9166 30.7504 18.9166H29.875C28.9633 18.9166 28.089 19.2788 27.4443 19.9235C26.7997 20.5681 26.4375 21.4425 26.4375 22.3541C26.4375 23.2658 26.7997 24.1402 27.4443 24.7848C28.089 25.4295 28.9633 25.7916 29.875 25.7916H31.0208C31.9325 25.7916 32.8069 26.1538 33.4515 26.7985C34.0962 27.4431 34.4583 28.3175 34.4583 29.2291C34.4583 30.1408 34.0962 31.0152 33.4515 31.6598C32.8069 32.3045 31.9325 32.6666 31.0208 32.6666H30.1454C29.3755 32.6666 28.6209 32.4522 27.966 32.0475C27.3111 31.6427 26.7818 31.0636 26.4375 30.375" stroke="#959595" stroke-width="4" stroke-linecap="round" stroke-linejoin="round"/>
</svg>
